<svg width="1560" height="182" viewBox="0 0 1560 182" fill="none" xmlns="http://www.w3.org/2000/svg">
<path d="M1560 177.243H1532.94V159.848H1532.46C1529.08 166.129 1524 171.203 1517.24 175.069C1510.63 178.773 1503.87 180.625 1496.94 180.625C1480.51 180.625 1468.59 176.599 1461.18 168.545C1453.94 160.331 1450.31 148.009 1450.31 131.58V52.334H1477.86V128.922C1477.86 139.875 1479.95 147.606 1484.14 152.116C1488.32 156.626 1494.2 158.881 1501.77 158.881C1507.57 158.881 1512.4 157.995 1516.27 156.223C1520.14 154.452 1523.28 152.116 1525.69 149.217C1528.11 146.157 1529.8 142.533 1530.77 138.345C1531.89 134.157 1532.46 129.647 1532.46 124.815V52.334H1560V177.243Z" fill="white" fill-opacity="0.1"/>
<path d="M1365.37 52.3346H1391.22V76.4949H1391.71C1392.51 73.1125 1394.04 69.8106 1396.3 66.5892C1398.71 63.3678 1401.53 60.4686 1404.75 57.8915C1408.14 55.1533 1411.84 52.9789 1415.87 51.3682C1419.89 49.7575 1424 48.9521 1428.19 48.9521C1431.41 48.9521 1433.59 49.0327 1434.71 49.1938C1436 49.3548 1437.29 49.5159 1438.58 49.677V76.2533C1436.65 75.9312 1434.63 75.6896 1432.54 75.5285C1430.61 75.2064 1428.67 75.0453 1426.74 75.0453C1422.07 75.0453 1417.64 76.0117 1413.45 77.9446C1409.43 79.7163 1405.88 82.4545 1402.82 86.1591C1399.76 89.7026 1397.35 94.132 1395.57 99.4473C1393.8 104.763 1392.92 110.883 1392.92 117.809V177.244H1365.37V52.3346Z" fill="white" fill-opacity="0.1"/>
<path d="M1300.3 144.626H1333.89V177.242H1300.3V144.626Z" fill="white" fill-opacity="0.1"/>
<path d="M1235.37 52.3346H1261.22V76.4949H1261.7C1262.51 73.1125 1264.04 69.8106 1266.29 66.5892C1268.71 63.3678 1271.53 60.4686 1274.75 57.8915C1278.13 55.1533 1281.84 52.9789 1285.86 51.3682C1289.89 49.7575 1294 48.9521 1298.19 48.9521C1301.41 48.9521 1303.58 49.0327 1304.71 49.1938C1306 49.3548 1307.29 49.5159 1308.58 49.677V76.2533C1306.64 75.9312 1304.63 75.6896 1302.54 75.5285C1300.6 75.2064 1298.67 75.0453 1296.74 75.0453C1292.07 75.0453 1287.64 76.0117 1283.45 77.9446C1279.42 79.7163 1275.88 82.4545 1272.82 86.1591C1269.76 89.7026 1267.34 94.132 1265.57 99.4473C1263.8 104.763 1262.91 110.883 1262.91 117.809V177.244H1235.37V52.3346Z" fill="white" fill-opacity="0.1"/>
<path d="M1186.89 103.796C1186.57 99.4473 1185.6 95.2595 1183.99 91.2328C1182.54 87.206 1180.45 83.743 1177.71 80.8438C1175.13 77.7835 1171.91 75.3675 1168.04 73.5957C1164.34 71.6629 1160.15 70.6965 1155.48 70.6965C1150.65 70.6965 1146.22 71.5823 1142.19 73.3541C1138.33 74.9648 1134.94 77.3003 1132.05 80.3606C1129.31 83.2598 1127.05 86.7228 1125.28 90.7495C1123.67 94.7763 1122.78 99.1251 1122.62 103.796H1186.89ZM1122.62 121.916C1122.62 126.748 1123.27 131.419 1124.56 135.929C1126.01 140.439 1128.1 144.386 1130.84 147.768C1133.58 151.15 1137.04 153.889 1141.23 155.982C1145.41 157.915 1150.41 158.882 1156.21 158.882C1164.26 158.882 1170.7 157.19 1175.53 153.808C1180.53 150.265 1184.23 145.03 1186.65 138.104H1212.74C1211.29 144.869 1208.8 150.909 1205.25 156.224C1201.71 161.539 1197.44 166.049 1192.45 169.754C1187.45 173.297 1181.82 175.955 1175.53 177.727C1169.41 179.66 1162.97 180.626 1156.21 180.626C1146.38 180.626 1137.68 179.015 1130.11 175.794C1122.54 172.573 1116.1 168.063 1110.78 162.264C1105.63 156.466 1101.68 149.54 1098.95 141.486C1096.37 133.433 1095.08 124.574 1095.08 114.91C1095.08 106.051 1096.45 97.6755 1099.19 89.7831C1102.09 81.7297 1106.11 74.7232 1111.27 68.7636C1116.58 62.643 1122.95 57.8109 1130.35 54.2674C1137.76 50.7239 1146.14 48.9521 1155.48 48.9521C1165.31 48.9521 1174.08 51.046 1181.82 55.2338C1189.71 59.2606 1196.23 64.6564 1201.39 71.4213C1206.54 78.1862 1210.24 85.998 1212.5 94.8568C1214.92 103.555 1215.56 112.574 1214.43 121.916H1122.62Z" fill="white" fill-opacity="0.1"/>
<path d="M963.514 52.334H993.472L1025.12 148.251H1025.61L1056.05 52.334H1084.56L1039.86 177.243H1008.94L963.514 52.334Z" fill="white" fill-opacity="0.1"/>
<path d="M946.197 149.459C946.197 152.842 946.6 155.258 947.405 156.707C948.371 158.157 950.143 158.882 952.72 158.882C953.526 158.882 954.492 158.882 955.62 158.882C956.747 158.882 958.036 158.721 959.485 158.399V177.485C958.519 177.807 957.23 178.129 955.62 178.452C954.17 178.935 952.64 179.337 951.029 179.66C949.418 179.982 947.808 180.223 946.197 180.384C944.586 180.546 943.217 180.626 942.09 180.626C936.452 180.626 931.781 179.499 928.077 177.244C924.372 174.989 921.956 171.042 920.829 165.405C915.352 170.72 908.587 174.586 900.534 177.002C892.642 179.418 884.991 180.626 877.582 180.626C871.944 180.626 866.548 179.821 861.394 178.21C856.24 176.76 851.65 174.586 847.623 171.687C843.757 168.626 840.616 164.841 838.2 160.331C835.945 155.66 834.818 150.265 834.818 144.144C834.818 136.413 836.187 130.131 838.925 125.299C841.824 120.467 845.529 116.682 850.039 113.943C854.71 111.205 859.864 109.272 865.501 108.145C871.3 106.856 877.098 105.89 882.897 105.246C887.89 104.279 892.642 103.635 897.152 103.313C901.661 102.83 905.608 102.105 908.99 101.138C912.534 100.172 915.272 98.7225 917.205 96.7896C919.298 94.6957 920.345 91.6354 920.345 87.6087C920.345 84.0652 919.46 81.1659 917.688 78.911C916.077 76.656 913.983 74.9648 911.406 73.8373C908.99 72.5488 906.252 71.7434 903.192 71.4213C900.131 70.9381 897.232 70.6965 894.494 70.6965C886.763 70.6965 880.4 72.3071 875.407 75.5285C870.414 78.7499 867.595 83.743 866.951 90.5079H839.408C839.892 82.4545 841.824 75.7701 845.207 70.4549C848.589 65.1396 852.858 60.8712 858.012 57.6499C863.327 54.4285 869.287 52.1735 875.89 50.885C882.494 49.5964 889.259 48.9521 896.185 48.9521C902.306 48.9521 908.346 49.5964 914.305 50.885C920.265 52.1735 925.58 54.2674 930.251 57.1667C935.083 60.0659 938.949 63.851 941.848 68.522C944.747 73.032 946.197 78.5888 946.197 85.1927V149.459ZM918.654 114.668C914.466 117.406 909.312 119.098 903.192 119.742C897.071 120.225 890.95 121.031 884.83 122.158C881.931 122.641 879.112 123.366 876.374 124.332C873.635 125.138 871.22 126.346 869.126 127.956C867.032 129.406 865.34 131.419 864.052 133.997C862.924 136.413 862.361 139.392 862.361 142.936C862.361 145.996 863.246 148.573 865.018 150.667C866.79 152.761 868.884 154.452 871.3 155.741C873.877 156.868 876.615 157.674 879.514 158.157C882.575 158.64 885.313 158.882 887.729 158.882C890.789 158.882 894.091 158.479 897.635 157.674C901.178 156.868 904.48 155.499 907.541 153.566C910.762 151.634 913.419 149.218 915.513 146.318C917.607 143.258 918.654 139.553 918.654 135.205V114.668Z" fill="white" fill-opacity="0.1"/>
<path d="M756.646 52.3346H782.498V76.4949H782.981C783.786 73.1125 785.316 69.8106 787.571 66.5892C789.987 63.3678 792.806 60.4686 796.028 57.8915C799.41 55.1533 803.115 52.9789 807.141 51.3682C811.168 49.7575 815.275 48.9521 819.463 48.9521C822.685 48.9521 824.859 49.0327 825.986 49.1938C827.275 49.3548 828.564 49.5159 829.852 49.677V76.2533C827.919 75.9312 825.906 75.6896 823.812 75.5285C821.879 75.2064 819.946 75.0453 818.013 75.0453C813.342 75.0453 808.913 76.0117 804.725 77.9446C800.699 79.7163 797.155 82.4545 794.095 86.1591C791.034 89.7026 788.618 94.132 786.847 99.4473C785.075 104.763 784.189 110.883 784.189 117.809V177.244H756.646V52.3346Z" fill="white" fill-opacity="0.1"/>
<path d="M609.671 4.73584H637.214V68.5192H637.697C639.63 65.4588 641.966 62.7207 644.704 60.3046C647.442 57.8886 650.422 55.8752 653.643 54.2646C657.026 52.4928 660.489 51.2042 664.032 50.3989C667.737 49.4325 671.361 48.9493 674.904 48.9493C684.73 48.9493 693.266 50.721 700.514 54.2646C707.923 57.647 714.044 62.3985 718.876 68.5192C723.708 74.4787 727.332 81.4852 729.748 89.5387C732.164 97.5921 733.372 106.209 733.372 115.39C733.372 123.766 732.245 131.9 729.99 139.792C727.896 147.685 724.594 154.691 720.084 160.812C715.735 166.771 710.178 171.603 703.414 175.308C696.649 178.851 688.676 180.623 679.495 180.623C675.307 180.623 671.039 180.301 666.69 179.657C662.502 179.174 658.475 178.127 654.61 176.516C650.744 174.905 647.2 172.811 643.979 170.234C640.919 167.657 638.342 164.275 636.248 160.087H635.765V177.241H609.671V4.73584ZM705.83 114.907C705.83 109.27 705.105 103.793 703.655 98.478C702.206 93.1627 700.031 88.4917 697.132 84.465C694.233 80.2772 690.609 76.9753 686.26 74.5592C681.911 71.9821 676.918 70.6936 671.28 70.6936C659.683 70.6936 650.905 74.7203 644.946 82.7738C639.147 90.8272 636.248 101.538 636.248 114.907C636.248 121.189 636.973 127.068 638.422 132.544C640.033 137.859 642.368 142.45 645.429 146.315C648.489 150.181 652.113 153.241 656.301 155.496C660.65 157.751 665.643 158.879 671.28 158.879C677.562 158.879 682.877 157.59 687.226 155.013C691.575 152.436 695.119 149.134 697.857 145.107C700.756 140.92 702.769 136.249 703.897 131.094C705.185 125.779 705.83 120.383 705.83 114.907Z" fill="white" fill-opacity="0.1"/>
<path d="M532.406 109.835C531.762 111.767 531.198 113.7 530.715 115.633C530.392 117.566 530.231 119.338 530.231 120.948C530.231 122.559 530.554 123.928 531.198 125.056C532.003 126.022 533.211 126.505 534.822 126.505C538.526 126.505 542.231 125.217 545.936 122.64C549.801 119.901 553.184 116.197 556.083 111.526C559.143 106.855 561.559 101.379 563.331 95.0968C565.264 88.6541 566.23 81.7281 566.23 74.3189C566.23 65.2991 564.539 57.2456 561.157 50.1586C557.774 42.9105 553.103 36.7899 547.144 31.7967C541.345 26.8036 534.5 23.0185 526.607 20.4414C518.876 17.7032 510.581 16.3341 501.722 16.3341C491.414 16.3341 481.991 18.2669 473.455 22.1326C465.079 25.8372 457.831 30.9914 451.71 37.5952C445.59 44.038 440.838 51.6887 437.456 60.5475C434.073 69.2453 432.382 78.6678 432.382 88.8151C432.382 100.573 434.154 111.204 437.697 120.707C441.402 130.21 446.395 138.263 452.677 144.867C459.119 151.471 466.69 156.625 475.387 160.33C484.246 163.873 493.749 165.645 503.897 165.645C514.527 165.645 524.594 163.551 534.097 159.363C543.6 155.176 551.654 149.297 558.257 141.726H575.17C567.438 154.29 557.21 164.034 544.486 170.96C531.762 177.886 517.91 181.349 502.93 181.349C490.528 181.349 478.85 179.094 467.898 174.584C456.945 169.913 447.361 163.471 439.147 155.256C431.093 147.042 424.731 137.216 420.06 125.78C415.389 114.345 413.054 101.701 413.054 87.8487C413.054 75.6075 415.389 64.2521 420.06 53.7826C424.892 43.1521 431.335 33.8906 439.389 25.9982C447.442 18.1059 456.784 11.9047 467.414 7.39478C478.206 2.88485 489.642 0.629883 501.722 0.629883C512.514 0.629883 522.742 2.40164 532.406 5.94515C542.231 9.3276 550.848 14.1597 558.257 20.4414C565.667 26.723 571.546 34.2128 575.894 42.9105C580.404 51.6082 582.659 61.1113 582.659 71.4197C582.659 83.4999 580.565 94.0499 576.378 103.07C572.351 112.09 567.358 119.579 561.398 125.539C555.6 131.498 549.399 136.008 542.795 139.069C536.191 141.968 530.473 143.418 525.641 143.418C521.936 143.418 518.715 142.29 515.977 140.035C513.239 137.619 511.708 134.076 511.386 129.405H510.903C507.682 133.109 503.655 136.33 498.823 139.069C493.991 141.807 488.998 143.176 483.843 143.176C478.85 143.176 474.179 142.209 469.831 140.277C465.482 138.183 461.697 135.445 458.475 132.062C455.415 128.519 452.999 124.492 451.227 119.982C449.455 115.311 448.569 110.398 448.569 105.244C448.569 97.5129 449.858 89.9426 452.435 82.5334C455.012 75.1243 458.556 68.4399 463.066 62.4804C467.737 56.5208 473.293 51.7693 479.736 48.2258C486.34 44.5212 493.588 42.6689 501.481 42.6689C507.118 42.6689 512.272 44.038 516.943 46.7761C521.614 49.5143 525.48 53.9437 528.54 60.0643L532.889 46.2929H549.801L532.406 109.835ZM488.434 125.056C493.266 125.056 497.695 123.687 501.722 120.948C505.749 118.049 509.212 114.506 512.111 110.318C515.01 105.969 517.265 101.298 518.876 96.3048C520.648 91.1506 521.534 86.3991 521.534 82.0502C521.534 79.151 520.97 76.4128 519.842 73.8357C518.876 71.2586 517.507 69.0036 515.735 67.0708C514.125 65.138 512.111 63.6078 509.695 62.4804C507.44 61.3529 505.024 60.7891 502.447 60.7891C497.454 60.7891 492.863 62.1582 488.676 64.8964C484.649 67.6346 481.186 71.0975 478.287 75.2853C475.387 79.3121 473.132 83.822 471.522 88.8151C469.911 93.8083 469.106 98.5598 469.106 103.07C469.106 109.512 470.797 114.828 474.179 119.016C477.723 123.042 482.474 125.056 488.434 125.056Z" fill="white" fill-opacity="0.1"/>
<path d="M329.753 180.626C319.767 180.626 310.828 179.015 302.935 175.794C295.204 172.412 288.6 167.821 283.124 162.023C277.809 156.224 273.701 149.298 270.802 141.245C268.064 133.191 266.695 124.332 266.695 114.668C266.695 105.165 268.064 96.387 270.802 88.3335C273.701 80.2801 277.809 73.3541 283.124 67.5556C288.6 61.7571 295.204 57.2472 302.935 54.0258C310.828 50.6434 319.767 48.9521 329.753 48.9521C339.74 48.9521 348.598 50.6434 356.33 54.0258C364.222 57.2472 370.826 61.7571 376.141 67.5556C381.618 73.3541 385.725 80.2801 388.463 88.3335C391.362 96.387 392.812 105.165 392.812 114.668C392.812 124.332 391.362 133.191 388.463 141.245C385.725 149.298 381.618 156.224 376.141 162.023C370.826 167.821 364.222 172.412 356.33 175.794C348.598 179.015 339.74 180.626 329.753 180.626ZM329.753 158.882C335.874 158.882 341.189 157.593 345.699 155.016C350.209 152.439 353.914 149.057 356.813 144.869C359.712 140.681 361.806 136.01 363.095 130.856C364.544 125.54 365.269 120.145 365.269 114.668C365.269 109.353 364.544 104.038 363.095 98.7225C361.806 93.4072 359.712 88.7362 356.813 84.7095C353.914 80.5217 350.209 77.1392 345.699 74.5621C341.189 71.985 335.874 70.6965 329.753 70.6965C323.633 70.6965 318.317 71.985 313.807 74.5621C309.298 77.1392 305.593 80.5217 302.694 84.7095C299.794 88.7362 297.62 93.4072 296.17 98.7225C294.882 104.038 294.238 109.353 294.238 114.668C294.238 120.145 294.882 125.54 296.17 130.856C297.62 136.01 299.794 140.681 302.694 144.869C305.593 149.057 309.298 152.439 313.807 155.016C318.317 157.593 323.633 158.882 329.753 158.882Z" fill="white" fill-opacity="0.1"/>
<path d="M183.965 52.3317H204.502V41.9428C204.502 34.0504 205.468 27.6882 207.401 22.8561C209.334 17.863 211.911 14.0778 215.132 11.5007C218.354 8.76257 221.978 6.99081 226.004 6.18547C230.192 5.21905 234.541 4.73584 239.051 4.73584C247.91 4.73584 254.352 5.29958 258.379 6.42707V27.9298C256.607 27.4466 254.675 27.1244 252.581 26.9634C250.648 26.6412 248.312 26.4802 245.574 26.4802C241.87 26.4802 238.648 27.366 235.91 29.1378C233.333 30.9095 232.044 34.3725 232.044 39.5267V52.3317H255.48V72.868H232.044V177.241H204.502V72.868H183.965V52.3317Z" fill="white" fill-opacity="0.1"/>
<path d="M57.5535 52.3346H83.6466V70.6965L84.1298 71.1797C88.3176 64.2537 93.794 58.8579 100.559 54.9922C107.324 50.9655 114.813 48.9521 123.028 48.9521C136.719 48.9521 147.51 52.4957 155.403 59.5827C163.295 66.6697 167.241 77.3003 167.241 91.4744V177.244H139.699V98.7225C139.376 88.8973 137.283 81.8102 133.417 77.4614C129.551 72.9514 123.511 70.6965 115.297 70.6965C110.626 70.6965 106.438 71.5823 102.733 73.3541C99.0287 74.9648 95.8879 77.3003 93.3108 80.3606C90.7337 83.2598 88.7203 86.7228 87.2707 90.7495C85.8211 94.7763 85.0963 99.0446 85.0963 103.555V177.244H57.5535V52.3346Z" fill="white" fill-opacity="0.1"/>
<path d="M0 4.73584H27.5428V30.829H0V4.73584ZM0 52.3317H27.5428V177.241H0V52.3317Z" fill="white" fill-opacity="0.1"/>
</svg>
