<svg width="17" height="18" viewBox="0 0 17 18" fill="none" xmlns="http://www.w3.org/2000/svg">
<path fill-rule="evenodd" clip-rule="evenodd" d="M11.5074 13.144C10.2896 14.1699 8.71698 14.7881 7 14.7881C3.13401 14.7881 0 11.6541 0 7.78809C0 3.9221 3.13401 0.788086 7 0.788086C10.866 0.788086 14 3.9221 14 7.78809C14 9.50507 13.3818 11.0777 12.3559 12.2955L16.4243 16.3638L15.5757 17.2124L11.5074 13.144ZM12.8 7.78809C12.8 10.9914 10.2033 13.5881 7 13.5881C3.79675 13.5881 1.2 10.9914 1.2 7.78809C1.2 4.58484 3.79675 1.98809 7 1.98809C10.2033 1.98809 12.8 4.58484 12.8 7.78809Z" fill="white"/>
</svg>
