<svg xmlns="http://www.w3.org/2000/svg">
    <symbol id="logo" width="117" height="44" viewBox="0 0 117 44" fill="none"
        xmlns="http://www.w3.org/2000/svg">
        <mask id="mask0_422_23059" style="mask-type:luminance" maskUnits="userSpaceOnUse" x="5"
            y="7" width="29" height="32">
            <path d="M5.83447 7.06567H33.5635V38.0898H5.83447V7.06567Z" fill="white" />
        </mask>
        <g mask="url(#mask0_422_23059)">
            <path
                d="M7.16986 14.2829C7.30453 16.074 7.62055 19.139 8.32999 22.1859C8.81846 24.2868 9.49304 26.3817 10.4186 28.03C11.7934 30.4799 13.7156 32.4274 15.5261 33.8817C17.1715 35.2037 18.7248 36.121 19.7019 36.6413C20.6743 36.124 22.2231 35.2096 23.8686 33.8892C25.6774 32.4365 27.6028 30.4858 28.9821 28.03C29.9032 26.3847 30.5778 24.2913 31.0648 22.1888C31.7725 19.1405 32.0901 16.074 32.2248 14.2829C30.4582 13.4722 29.206 12.4014 28.3242 11.2961C27.5165 10.284 27.0144 9.24181 26.7059 8.34999H12.6948C12.3303 9.40263 11.6981 10.6644 10.6061 11.839C9.76519 12.7474 8.64601 13.606 7.16986 14.2829ZM7.08674 22.4686C6.29577 19.0623 5.97963 15.6529 5.8647 13.9234L5.83447 13.4708L6.2564 13.2948C7.75364 12.6736 8.85783 11.8495 9.66537 10.9788C10.7635 9.79673 11.3291 8.52135 11.6165 7.53779L11.751 7.07764H27.6481L27.7843 7.53779C28.0339 8.39204 28.4936 9.46734 29.3225 10.5051C30.1557 11.5473 31.3733 12.5609 33.1383 13.2948L33.5602 13.4708L33.53 13.9234C33.415 15.6529 33.0974 19.0652 32.3079 22.4716C31.7982 24.6749 31.0828 26.8826 30.0953 28.6466C28.6222 31.2709 26.5804 33.3433 24.6672 34.8788C22.7645 36.4067 20.9738 37.4189 19.9938 37.9212L19.7003 38.07L19.41 37.9212C18.4239 37.4159 16.6316 36.4008 14.7274 34.8713C12.8112 33.3328 10.7725 31.2634 9.30547 28.6466C8.31475 26.8795 7.59788 24.6703 7.08674 22.4686Z"
                fill="white" />
        </g>
        <path
            d="M19.3264 12.6876H21.8653C24.5368 12.5296 25.2247 12.5034 25.6215 12.5034H26.0447C31.3082 12.5034 34.0592 13.9499 34.0592 16.6854C34.0592 18.0267 33.4244 19.0001 32.1813 19.6312C31.335 20.052 30.7266 20.3152 29.0072 20.657C30.7266 20.8673 31.4671 21.1306 32.446 21.6303C34.0328 22.498 34.9059 23.9445 34.9059 25.6281C34.9059 26.601 34.5618 27.5744 33.9534 28.2845C32.7634 29.6787 31.0966 30.2308 27.8435 30.2308H19.3264V29.8624C20.1464 29.5207 20.3843 29.0999 20.3843 28.1265V14.7919C20.3843 13.8186 20.1464 13.3978 19.3264 13.056V12.6876ZM24.6957 20.3414H25.9125C28.7425 20.3414 30.1709 19.1314 30.1709 16.7116C30.1709 14.5025 28.7956 13.1874 26.5473 13.1874C25.1984 13.1874 24.6957 13.6082 24.6957 14.7391V20.3414ZM24.6957 21.2096V28.1003C24.6957 29.1789 25.2247 29.5735 26.6267 29.5735C27.3409 29.5735 27.9225 29.4683 28.3988 29.2841C29.6951 28.7315 30.6208 27.1008 30.6208 25.3125C30.6208 22.6032 29.0598 21.2096 26.0183 21.2096H24.6957Z"
            fill="white" />
        <path
            d="M51.7 31.4147V31.993C46.4896 30.0205 43.9239 27.2851 42.6539 22.1302C42.4687 22.1564 42.3102 22.1564 42.2308 22.1564H41.8871C41.5697 22.1564 41.305 22.1564 40.8024 22.0774V28.1266C40.8024 29.1 41.0403 29.5208 41.8603 29.8625V30.2309H35.4067V29.8625C36.2267 29.5208 36.4646 29.1 36.4646 28.1266V14.792C36.4646 13.8187 36.2267 13.3979 35.4067 13.0561V12.6877H37.443C37.893 12.6877 38.713 12.6616 39.7972 12.5825C41.0671 12.5035 42.5218 12.4512 43.3944 12.4512C48.288 12.4512 50.9594 14.1604 50.9594 17.2905C50.9594 18.6579 50.351 19.9207 49.2137 20.7623C48.7379 21.1307 47.8911 21.4986 46.7011 21.867C48.1822 26.7329 50.0074 30.3623 51.7 31.4147ZM40.8024 15.0286V21.262C41.1466 21.2882 41.3845 21.3149 41.5697 21.3149H42.125C45.1138 21.3149 46.648 19.9469 46.648 17.3166C46.648 15.0024 44.8496 13.1875 42.6276 13.1875C41.3313 13.1875 40.8024 13.6873 40.8024 15.0286Z"
            fill="white" />
        <path
            d="M53.92 24.6023L52.809 28.1264C52.7295 28.3107 52.7032 28.521 52.7032 28.7052C52.7032 29.3102 53.1 29.652 54.2373 29.889V30.2308H49.688V29.889C50.7195 29.5996 51.2485 29.1522 51.6453 28.1264L56.7767 12.5295H60.1624L65.1881 28.1264C65.5317 29.0998 66.008 29.6786 66.6428 29.889V30.2308H60.1887V29.889C60.7971 29.6786 61.035 29.4154 61.035 28.8894C61.035 28.6791 60.9824 28.4158 60.8766 28.1264L59.7393 24.6023H53.92ZM54.3431 23.5499H59.3951L56.8562 15.791L54.3431 23.5499Z"
            fill="white" />
        <path
            d="M74.4706 30.2307H71.1117L65.9271 14.7918C65.5834 13.8184 65.1335 13.3186 64.4724 13.0293V12.6875H70.9001V13.0293C70.3707 13.2396 70.1065 13.5819 70.1065 14.0288C70.1065 14.2654 70.1591 14.5024 70.2649 14.7918L74.3916 27.2587L78.3325 14.7918C78.3857 14.6076 78.412 14.4234 78.412 14.2392C78.412 13.5819 78.0415 13.2663 76.9042 13.0293V12.6875H81.3214V13.0293C80.3693 13.3186 79.8136 13.8184 79.4699 14.7918L74.4706 30.2307Z"
            fill="white" />
        <path
            d="M93.487 12.6875L93.7781 16.0541H93.1697C92.3497 14.1602 91.186 13.3448 89.0961 13.3448H87.6678C86.4246 13.3448 85.922 13.7656 85.922 14.818V20.078H88.3293C90.0219 20.078 90.8682 19.5259 91.0534 18.2636H91.6092V22.7611H91.0534C90.974 21.4198 90.2071 20.841 88.3293 20.841H85.922V27.8898C85.922 29.2311 86.3983 29.5734 88.1704 29.5734H89.4666C91.9266 29.5734 93.3281 28.6262 94.1749 26.3905L94.7302 26.6009L93.7781 30.2307H80.5264V29.8623C81.3463 29.5205 81.5842 29.0998 81.5842 28.1264V14.7918C81.5842 13.8184 81.3463 13.3977 80.5264 13.0559V12.6875H93.487Z"
            fill="white" />
        <path
            d="M111.286 31.4147V31.993C106.076 30.0205 103.51 27.2851 102.24 22.1302C102.055 22.1564 101.897 22.1564 101.817 22.1564H101.474C101.156 22.1564 100.891 22.1564 100.389 22.0774V28.1266C100.389 29.1 100.627 29.5208 101.447 29.8625V30.2309H94.9932V29.8625C95.8131 29.5208 96.051 29.1 96.051 28.1266V14.792C96.051 13.8187 95.8131 13.3979 94.9932 13.0561V12.6877H97.0295C97.4794 12.6877 98.2994 12.6616 99.3836 12.5825C100.654 12.5035 102.108 12.4512 102.981 12.4512C107.874 12.4512 110.546 14.1604 110.546 17.2905C110.546 18.6579 109.937 19.9207 108.8 20.7623C108.324 21.1307 107.478 21.4986 106.288 21.867C107.769 26.7329 109.594 30.3623 111.286 31.4147ZM100.389 15.0286V21.262C100.733 21.2882 100.971 21.3149 101.156 21.3149H101.711C104.7 21.3149 106.234 19.9469 106.234 17.3166C106.234 15.0024 104.436 13.1875 102.214 13.1875C100.918 13.1875 100.389 13.6873 100.389 15.0286Z"
            fill="white" />
        <mask id="mask1_422_23059" style="mask-type:luminance" maskUnits="userSpaceOnUse" x="15"
            y="12" width="5" height="5">
            <path d="M15.3503 12.3884H19.2602V16.4041H15.3503V12.3884Z" fill="white" />
        </mask>
        <g mask="url(#mask1_422_23059)">
            <path
                d="M15.9919 13.1404L16.033 13.2591C16.0761 13.4244 16.1349 13.5839 16.1876 13.7453L16.2191 13.8211L16.2269 13.8581C16.2425 13.893 16.2563 13.93 16.268 13.9669L16.3483 14.0039C16.4461 14.0215 16.5461 14.0234 16.642 14.0389C16.7888 14.0584 16.9279 14.1128 17.0728 14.1361C17.2177 14.1595 17.3782 14.1984 17.527 14.2412C17.5428 14.354 17.5545 14.4688 17.5858 14.5795C17.6171 14.6904 17.6289 14.8286 17.6642 14.9492C17.6994 15.0697 17.7151 15.1824 17.7367 15.2991L17.7581 15.3595C17.7738 15.4548 17.7954 15.55 17.813 15.6454C17.906 15.6894 17.996 15.7386 18.0832 15.7931C18.3496 15.9545 18.6159 16.116 18.8939 16.256C18.9977 16.3143 19.1074 16.3669 19.2249 16.3941C19.3424 16.4213 19.4696 16.33 19.5851 16.2793C19.8201 16.1705 20.0374 16.0304 20.2646 15.9059C20.3821 15.8339 20.4957 15.7563 20.6151 15.6901C20.6601 15.6625 20.7019 15.6307 20.7405 15.5948C20.7582 15.4689 20.7829 15.3445 20.8149 15.2213C20.8658 15.0152 20.9187 14.8091 20.9539 14.599L20.9656 14.5446C20.9852 14.4649 20.9911 14.3851 21.0127 14.3073L21.0185 14.2509C21.1125 14.2081 21.2163 14.1945 21.3181 14.175C21.4552 14.142 21.5943 14.1167 21.7314 14.0798C21.9193 14.0312 22.1152 14.0155 22.305 13.9727C22.3364 13.8308 22.3931 13.6967 22.4303 13.5546C22.4989 13.364 22.5479 13.1696 22.6086 12.9771C22.6477 12.8934 22.6477 12.7864 22.7182 12.7222C22.8572 12.6659 22.9983 12.6114 23.1334 12.5414V12.3916C22.9356 12.4266 22.732 12.4247 22.5342 12.4655C22.3364 12.5064 22.0994 12.5005 21.886 12.5433C21.6725 12.5861 21.4787 12.5687 21.279 12.6037C21.1693 12.6016 21.0617 12.6308 20.952 12.6289L20.9304 12.6445L20.7678 12.6523C20.6857 12.6697 20.6015 12.6697 20.5211 12.6892C20.4408 12.7086 20.3233 12.6989 20.2255 12.7164C20.0022 12.734 19.775 12.7417 19.5538 12.7787C19.4696 12.7826 19.3873 12.7864 19.3051 12.7961C18.9839 12.7864 18.6647 12.734 18.3456 12.7203C18.2144 12.7028 18.0793 12.7067 17.952 12.6717C17.5918 12.6562 17.2372 12.5784 16.875 12.5667C16.7497 12.5491 16.6243 12.5453 16.501 12.5141C16.3267 12.5025 16.1544 12.4772 15.9801 12.4675C15.7844 12.4266 15.5846 12.415 15.3868 12.4131L15.3613 12.5064C15.5356 12.6134 15.7295 12.6814 15.9038 12.7864C15.9213 12.9051 15.9625 13.0218 15.9919 13.1404Z"
                fill="white" />
        </g>
        <mask id="mask2_422_23059" style="mask-type:luminance" maskUnits="userSpaceOnUse" x="11"
            y="13" width="9" height="18">
            <path d="M11.3276 13.8911H19.2602V30.3281H11.3276V13.8911Z" fill="white" />
        </mask>
        <g mask="url(#mask2_422_23059)">
            <path
                d="M26.7443 22.8275C26.5916 22.701 26.4879 22.526 26.3331 22.4016C26.1687 22.2285 25.9983 22.0593 25.8241 21.896C25.6869 21.7501 25.5401 21.61 25.403 21.4642C25.4304 21.3903 25.4872 21.332 25.5225 21.2619C25.6066 21.1044 25.7202 20.9623 25.8025 20.8049C25.8848 20.6474 25.9807 20.5481 26.0493 20.4081C26.1178 20.268 26.2098 20.1281 26.3077 19.9997C26.4154 19.8403 26.5133 19.675 26.619 19.5135C26.713 19.389 26.7816 19.249 26.8795 19.1265C26.9774 19.0039 27.0831 18.8251 27.1928 18.6811L27.187 18.6499C27.0577 18.5975 26.946 18.51 26.8149 18.4614C26.5584 18.3213 26.2882 18.2085 26.0258 18.0782C25.7241 17.9284 25.4109 17.8078 25.1191 17.6425C24.9957 17.5862 24.8723 17.5297 24.7431 17.4811C24.7431 17.7689 24.7901 18.0548 24.7803 18.3427C24.7278 18.2843 24.6795 18.2228 24.6354 18.1579C24.5375 18.0062 24.4004 17.8837 24.2966 17.7359C24.1929 17.5881 24.0597 17.4383 23.9618 17.2749C23.8212 17.0999 23.6906 16.9178 23.5702 16.7285C23.4527 16.5671 23.3254 16.4115 23.2137 16.2462C23.112 16.1177 23.0023 16.0011 22.9122 15.8669L22.971 15.8378L23.0219 15.8338L23.0414 15.8202C23.0958 15.8114 23.1493 15.799 23.202 15.7832C23.3137 15.7561 23.4273 15.7424 23.5349 15.7054C23.7072 15.6724 23.8776 15.6218 24.0519 15.5966C24.2262 15.5713 24.3633 15.5207 24.5199 15.4896L24.5728 15.4799C24.646 15.4602 24.7205 15.4465 24.796 15.4391C24.8058 15.6919 24.8548 15.9427 24.8587 16.1975C24.89 16.5087 24.9194 16.8179 24.939 17.1292C24.9703 17.1874 24.9997 17.2517 25.0584 17.2846C25.1172 17.3177 25.2053 17.3216 25.2777 17.345C25.3502 17.3683 25.4716 17.3916 25.5558 17.4461L25.6439 17.4499C25.6843 17.419 25.7267 17.3912 25.7712 17.3663L25.7908 17.308C25.7673 17.2167 25.7595 17.1213 25.7418 17.0299C25.6988 16.8568 25.6988 16.6779 25.6576 16.5048C25.6445 16.4484 25.638 16.3915 25.638 16.3337L25.6224 16.3122C25.6086 16.0964 25.5617 15.8844 25.5401 15.6685C25.5301 15.556 25.5132 15.4445 25.4891 15.334C25.4755 15.2057 25.4617 15.0773 25.4403 14.9509C25.4226 14.8712 25.3541 14.8244 25.2915 14.7797C25.1024 14.6243 24.9262 14.4559 24.7626 14.2741C24.6354 14.1593 24.5238 14.031 24.4004 13.9123L24.2829 13.9337C24.0676 13.9921 23.8424 13.9998 23.6329 14.0776L23.5839 14.0854C23.2843 14.1768 22.9768 14.2429 22.6753 14.3304C22.5069 14.379 22.3365 14.4239 22.1661 14.4647L22.127 14.4783C22.0369 14.5016 21.9449 14.5191 21.8548 14.5366C21.7177 14.5892 21.565 14.5813 21.4318 14.6475L21.426 14.7117C21.3946 14.8964 21.3672 15.0812 21.3202 15.262C21.3124 15.3535 21.2908 15.4449 21.2888 15.5363L21.3437 15.5479C21.5199 15.6822 21.6747 15.8436 21.8391 15.9913C21.9684 16.0964 22.078 16.2209 22.2034 16.3298C22.3287 16.4386 22.4148 16.5106 22.5147 16.606C22.6557 16.7324 22.7908 16.8646 22.9416 16.9794C23.0924 17.0941 23.2412 17.1991 23.3666 17.3372C23.4331 17.4052 23.4644 17.4948 23.5251 17.5666C23.5858 17.6386 23.6171 17.7418 23.6798 17.8215C23.7424 17.9012 23.811 18.0296 23.8815 18.1307C23.9521 18.2318 24.0108 18.3368 24.0851 18.4322C24.2359 18.6227 24.3594 18.8328 24.5043 19.0273C24.6138 19.1692 24.6922 19.3307 24.8058 19.4687C24.8861 19.5602 24.9488 19.6651 25.0211 19.7625C24.9311 19.8693 24.841 19.9763 24.747 20.0795C24.5669 20.307 24.375 20.5268 24.1851 20.7465C23.9951 20.9974 23.7679 21.2172 23.5839 21.4719C23.4802 21.6022 23.3685 21.7228 23.2705 21.8571C23.1727 21.9912 23.0708 22.0748 22.9827 22.1935C22.828 22.3899 22.6596 22.5766 22.5147 22.7808C22.4481 22.8897 22.4285 23.0161 22.3777 23.1309C22.3404 23.2164 22.3228 23.3078 22.2857 23.3916C22.2269 23.5665 22.176 23.7454 22.1054 23.9167L22.0996 23.9535L22.0682 24.0313C22.0428 24.111 22.0212 24.1908 21.9918 24.2686L21.9801 24.3036C21.9292 24.4689 21.8607 24.6284 21.8039 24.7918C21.7471 24.9551 21.708 25.0776 21.6609 25.2216L21.6374 25.278C21.6041 25.3947 21.6061 25.5153 21.5826 25.6339C21.5748 25.7195 21.5767 25.807 21.5709 25.8944L21.5748 25.8789C21.5493 26.1279 21.5532 26.3808 21.4925 26.6239C21.4063 26.5927 21.3378 26.5304 21.2614 26.4799C21.1932 26.4319 21.1305 26.3774 21.0735 26.3165C20.7875 26.4923 20.4872 26.6394 20.1727 26.758C19.9867 26.8513 19.7948 26.9253 19.6068 27.0128C19.5011 27.0517 19.4051 27.1178 19.2935 27.1392C19.2171 27.1334 19.1505 27.0945 19.0821 27.0652C18.9136 26.9836 18.7335 26.9272 18.5709 26.8358C18.2262 26.6919 17.866 26.5635 17.5664 26.3359C17.4352 26.4196 17.2961 26.4974 17.1747 26.5947C17.1278 26.5577 17.0827 26.5227 17.0358 26.4877C17.0123 26.1104 17.0004 25.733 16.9535 25.3596L16.9378 25.3422V25.2838C16.8751 25.1322 16.8399 24.9688 16.7773 24.8171L16.7361 24.7198C16.6773 24.5254 16.6069 24.3328 16.5404 24.1403L16.5011 24.0392C16.4678 23.9477 16.4424 23.8544 16.4032 23.7649C16.3895 23.7202 16.3778 23.6734 16.3661 23.6287L16.3386 23.5958C16.3207 23.5211 16.2953 23.4491 16.2622 23.3798C16.2171 23.2281 16.1644 23.0784 16.1115 22.9286C16.0703 22.81 15.994 22.7108 15.9117 22.6174C15.7962 22.4852 15.6983 22.3373 15.5808 22.2051C15.3556 21.9465 15.1403 21.682 14.9287 21.4136C14.5821 20.9877 14.2199 20.5773 13.8674 20.1552C13.7577 20.0249 13.6402 19.9005 13.5404 19.7644C13.6637 19.5873 13.8106 19.4279 13.9183 19.2412C14.0162 19.0973 14.1239 18.9592 14.216 18.8114C14.3256 18.6207 14.4803 18.4633 14.5919 18.2746C14.6762 18.156 14.7485 18.0315 14.8386 17.9168C14.9287 17.802 15.0051 17.6406 15.0893 17.5045C15.2107 17.2983 15.4163 17.1679 15.5945 17.0163C15.761 16.8977 15.8921 16.7401 16.0527 16.6157C16.272 16.4115 16.4933 16.2112 16.7087 16.0031C16.8967 15.8378 17.0729 15.6607 17.2707 15.509C17.2531 15.4176 17.2414 15.3243 17.2257 15.2329C17.1728 15.0384 17.1611 14.8362 17.1101 14.6397C17.0024 14.6066 16.8889 14.5931 16.7792 14.5755C16.6695 14.558 16.511 14.5172 16.3778 14.4802C16.1957 14.4297 16.0115 14.3869 15.8295 14.3343L15.7805 14.313C15.7217 14.2954 15.661 14.2818 15.6023 14.2663C15.4809 14.2216 15.3537 14.204 15.2323 14.1671C15.1109 14.1301 14.9679 14.103 14.8406 14.0562C14.6786 14.0135 14.5148 13.9798 14.349 13.9551L14.2708 13.9337C14.2385 13.9242 14.206 13.9165 14.1728 13.9104C14.0456 14.0037 13.9417 14.1262 13.8283 14.2371C13.6696 14.3908 13.5227 14.5561 13.3543 14.7019C13.2878 14.7564 13.2349 14.8284 13.1625 14.8789C13.1331 14.9041 13.0899 14.9256 13.0938 14.9684C13.0919 15.0656 13.086 15.1629 13.086 15.2581L13.0704 15.2835C13.0684 15.3884 13.0351 15.4877 13.0273 15.5907C13.0156 15.6646 13.0137 15.7385 12.996 15.8124C12.9937 15.8642 12.9871 15.9153 12.9764 15.9661C12.947 16.1392 12.9294 16.3161 12.8981 16.4893C12.8668 16.6623 12.8452 16.7829 12.8276 16.9327C12.8094 16.9904 12.7977 17.0494 12.7923 17.1096C12.7806 17.2302 12.7513 17.3508 12.7513 17.4733L12.8804 17.4189C13.0293 17.3975 13.186 17.3955 13.3269 17.3372L13.37 17.3294L13.5071 17.2885L13.5579 17.2691C13.5717 17.1038 13.6128 16.9424 13.6225 16.7771C13.6461 16.5379 13.6873 16.2987 13.7029 16.0575C13.7186 15.8163 13.7322 15.6336 13.7558 15.4234C13.8164 15.4429 13.8791 15.4604 13.9417 15.478C14.165 15.5246 14.3883 15.5732 14.6134 15.616C14.8386 15.6588 15.1148 15.7405 15.3693 15.7813L15.428 15.8047C15.5015 15.8227 15.576 15.8357 15.6513 15.8436C15.5976 15.9221 15.5389 15.9967 15.475 16.0672C15.3144 16.2909 15.1461 16.5067 14.9835 16.7285C14.8211 16.9502 14.6565 17.17 14.5097 17.4033C14.4412 17.5006 14.357 17.5881 14.2883 17.6853C14.2014 17.8057 14.1074 17.9205 14.0064 18.0296C13.9104 18.1365 13.838 18.2611 13.7342 18.3621C13.7342 18.1949 13.7636 18.0296 13.7871 17.8643C13.7945 17.7344 13.8095 17.6053 13.8322 17.4772C13.65 17.5589 13.4562 17.6192 13.2839 17.7203C13.1115 17.8215 12.9079 17.8934 12.7179 17.9771C12.528 18.0607 12.3263 18.1773 12.1226 18.263C11.8505 18.3776 11.5959 18.5255 11.3276 18.6461C11.3864 18.7219 11.4353 18.8056 11.4881 18.8853C11.5861 19.0253 11.6801 19.1673 11.7721 19.3092C11.8192 19.3812 11.8818 19.4435 11.9229 19.5193C12.06 19.7799 12.2479 20.0094 12.3948 20.2642C12.5416 20.5189 12.6846 20.7446 12.8433 20.9799C12.9215 21.1141 13.0254 21.2327 13.0977 21.3709C13.1115 21.4038 13.1487 21.4369 13.1271 21.4739C13.0664 21.5789 12.9705 21.6548 12.8843 21.7384C12.712 21.9115 12.5338 22.0807 12.3596 22.2518C12.2911 22.3315 12.2205 22.4093 12.1442 22.4832C12.0678 22.5572 11.9836 22.6739 11.8896 22.7556C11.7956 22.8372 11.684 22.9772 11.5607 23.0647L11.5548 23.1212C11.6449 23.1367 11.733 23.1601 11.8231 23.1775C11.9131 23.1951 12.06 23.2261 12.1775 23.2592L12.2362 23.2807C12.3282 23.3001 12.4183 23.3254 12.5103 23.3507C12.6023 23.3759 12.7101 23.3817 12.804 23.4148C13.0156 23.479 13.2349 23.516 13.4503 23.5685L13.5266 23.5898C13.6134 23.6039 13.699 23.6233 13.7832 23.6482C13.8448 23.665 13.9075 23.6766 13.9711 23.6833C13.7968 23.9711 13.7048 24.2978 13.5404 24.5914C13.5149 24.6362 13.4718 24.6868 13.5051 24.7393C13.5991 24.9143 13.6813 25.0972 13.7616 25.2799C13.9458 25.5542 14.1141 25.84 14.2883 26.1201C14.4705 26.3613 14.6017 26.6336 14.7799 26.8786C14.84 26.9927 14.9013 27.1061 14.9639 27.2189C14.9718 26.9681 14.966 26.7191 14.9738 26.4683C14.9894 26.3477 14.9855 26.2252 14.9953 26.1026C15.0129 26.015 14.9992 25.9275 15.0207 25.84C15.0364 25.5172 15.0541 25.1963 15.0775 24.8734C15.0835 24.8365 15.0775 24.7937 15.1069 24.7666C15.2087 24.64 15.3399 24.5428 15.4535 24.4281C15.5671 24.3133 15.663 24.2492 15.7571 24.1461C15.851 24.0431 15.9313 23.9963 16.0156 23.9186C16.0115 23.9846 16.0135 24.0528 15.9959 24.1169C15.9813 24.1988 15.9708 24.2811 15.9646 24.364C15.9254 24.4709 15.9195 24.5856 15.8979 24.6965C15.8901 24.7236 15.8823 24.749 15.8745 24.7762L15.8706 24.8345L15.8549 24.8579C15.8432 24.9863 15.8197 25.1146 15.802 25.241L15.7785 25.3188C15.759 25.4219 15.7433 25.5269 15.7198 25.63C15.6964 25.733 15.6767 25.8984 15.6493 26.0307C15.6288 26.1036 15.6125 26.1775 15.6003 26.2523C15.5808 26.4294 15.526 26.6005 15.4927 26.7755L15.4711 26.8339C15.4515 26.9117 15.434 26.9895 15.4163 27.0692L15.3928 27.1275C15.383 27.1858 15.3634 27.2442 15.3615 27.3025C15.3908 27.4134 15.4574 27.5087 15.5103 27.6079C15.5632 27.7071 15.6376 27.8355 15.6923 27.954C15.7566 28.0492 15.812 28.149 15.8588 28.2536C15.9528 28.3975 16.0156 28.5589 16.1154 28.697C16.2152 28.8351 16.2759 28.9926 16.3581 29.1385C16.3922 29.2087 16.4299 29.2768 16.4717 29.3427L16.4836 29.3778C16.5736 29.51 16.6402 29.6578 16.7244 29.7939C16.7322 29.7395 16.7419 29.685 16.7538 29.6325L16.7773 29.5566C16.7831 29.5314 16.789 29.5042 16.7948 29.4788L16.8125 29.4167L16.8261 29.403C16.8422 29.2961 16.8644 29.1904 16.8928 29.0859C16.9261 28.9732 16.9358 28.8546 16.979 28.7437L17.0298 28.5511C17.2961 28.7729 17.5742 28.9829 17.8543 29.1852C17.9325 29.2435 17.9932 29.3213 18.0735 29.3758C18.1539 29.4302 18.2674 29.5313 18.3731 29.5975C18.4577 29.6504 18.5354 29.7121 18.6061 29.7823C18.7296 29.899 18.8804 29.9865 19.0076 30.1012C19.0977 30.1712 19.1799 30.2529 19.268 30.3248C19.3326 30.2704 19.3933 30.2101 19.46 30.1576C19.6499 30.0156 19.8242 29.8562 20.0142 29.7142C20.1492 29.5917 20.3079 29.5003 20.4429 29.3797C20.5781 29.2591 20.7602 29.1229 20.9266 29.0043C21.1205 28.8526 21.3163 28.7029 21.5199 28.5648C21.5395 28.6426 21.5572 28.7184 21.5787 28.7962L21.6022 28.8546C21.6179 28.9382 21.6296 29.0238 21.6512 29.1074C21.7001 29.2241 21.706 29.3524 21.7315 29.4769L21.751 29.5372C21.7706 29.6209 21.7862 29.7064 21.8039 29.792L21.8333 29.7823C21.8529 29.7298 21.8776 29.6799 21.9077 29.6325C22.0311 29.4672 22.1074 29.2746 22.2112 29.0977C22.315 28.9206 22.4325 28.697 22.552 28.5025C22.7712 28.0844 23.012 27.678 23.2137 27.2501C23.1903 27.2034 23.1688 27.1567 23.1472 27.1081C23.0904 26.8961 23.0395 26.6802 22.9945 26.4663C22.9612 26.3301 22.9573 26.1901 22.922 26.0539C22.8867 25.9178 22.8731 25.7409 22.83 25.5892C22.7869 25.4374 22.785 25.3325 22.7576 25.204C22.7301 25.0757 22.7203 24.928 22.6811 24.7937C22.642 24.6595 22.6381 24.4786 22.595 24.3231C22.552 24.1675 22.546 24.0489 22.5323 23.9107C22.6322 24.0003 22.7301 24.0917 22.8358 24.1714C22.9474 24.2939 23.0826 24.3911 23.2001 24.5078C23.2999 24.5953 23.388 24.6965 23.4919 24.7782C23.4919 24.959 23.5134 25.138 23.5154 25.3188C23.5295 25.4468 23.5354 25.5752 23.5329 25.7039L23.5506 25.7253C23.5506 25.8206 23.5467 25.9178 23.5623 26.0112C23.5917 26.4118 23.5917 26.8124 23.5956 27.2131C23.6193 27.187 23.6396 27.1586 23.6564 27.1275C23.6858 27.0128 23.7523 26.9136 23.813 26.8144C23.9188 26.6316 24.0499 26.4625 24.1517 26.2757C24.3182 26.0462 24.4572 25.7992 24.6099 25.5619C24.6648 25.486 24.6981 25.3966 24.7548 25.3207C24.8743 25.1632 24.9213 24.9688 25.0075 24.7937C25.0271 24.7509 25.0505 24.7062 25.0388 24.6576C25.0271 24.609 24.9762 24.5293 24.9507 24.4631C24.9252 24.3969 24.8782 24.3152 24.8508 24.2395C24.8077 24.0839 24.7079 23.9516 24.657 23.798L24.6021 23.6833C24.7509 23.6502 24.8998 23.6151 25.0486 23.584L25.1289 23.5627C25.2053 23.5432 25.2835 23.5276 25.3619 23.5121C25.4774 23.4752 25.5969 23.4576 25.7163 23.4363L25.7751 23.4129C25.8671 23.3916 25.9591 23.3759 26.0493 23.3526L26.1061 23.3312C26.2054 23.3142 26.3034 23.2908 26.3998 23.2612C26.5173 23.2281 26.6367 23.2067 26.7542 23.1756L26.952 23.1367L27.0381 23.1289C26.9441 23.02 26.8344 22.9325 26.7443 22.8275Z"
                fill="white" />
        </g>
        <mask id="mask3_422_23059" style="mask-type:luminance" maskUnits="userSpaceOnUse" x="14"
            y="16" width="6" height="9">
            <path d="M14.2273 16.5281H19.2604V24.4703H14.2273V16.5281Z" fill="white" />
        </mask>
        <g mask="url(#mask3_422_23059)">
            <path
                d="M22.5814 21.3748C22.7713 21.2211 22.9494 21.0519 23.1492 20.908C23.2138 20.8633 23.2667 20.805 23.3254 20.7524C23.4312 20.6571 23.5526 20.5774 23.6524 20.4742C23.7524 20.3712 23.8737 20.2934 23.9815 20.198C24.0891 20.1028 24.1772 20.0308 24.2791 19.953C24.1968 19.8344 24.093 19.7314 24.0029 19.6185C23.9129 19.5057 23.7837 19.3793 23.6858 19.251C23.5429 19.0565 23.3587 18.8912 23.2589 18.6676C23.2099 18.5489 23.1473 18.4361 23.0963 18.3175C23.0669 18.2532 23.0376 18.1852 22.9827 18.1386C22.8732 18.0393 22.7752 17.9284 22.6577 17.839C22.4632 17.6613 22.2634 17.4896 22.0585 17.3236C21.9693 17.2378 21.876 17.1568 21.7785 17.0805C21.6297 16.9697 21.4926 16.8451 21.3517 16.7266C21.2831 16.6701 21.2068 16.6196 21.142 16.5573L21.1107 16.5515C20.7428 16.7549 20.3629 16.9331 19.9711 17.0863C19.74 17.166 19.5227 17.2769 19.2994 17.3742C19.2015 17.3723 19.1173 17.3158 19.0273 17.2866C18.7042 17.1213 18.3517 17.0222 18.0286 16.8569C17.8269 16.7576 17.6194 16.6682 17.4255 16.5496C17.0847 16.8472 16.7264 17.1213 16.3876 17.4209C16.2271 17.5454 16.0783 17.6834 15.9254 17.8177C15.8079 17.9013 15.712 18.0082 15.6023 18.0997C15.5332 18.1588 15.4842 18.2314 15.4555 18.3175C15.43 18.3875 15.3889 18.4497 15.3596 18.5178C15.3008 18.6287 15.2656 18.7531 15.1853 18.8523C15.0012 19.0837 14.8132 19.3133 14.6134 19.533C14.5041 19.6717 14.3853 19.802 14.2571 19.9239L14.265 19.9491C14.4529 20.0873 14.6155 20.2565 14.7976 20.4024C14.9013 20.4781 14.9836 20.5793 15.0855 20.659C15.2891 20.8127 15.4692 20.9955 15.6807 21.1414C15.8922 21.2872 16.0841 21.4623 16.2681 21.6431C16.4169 21.7734 16.5619 21.9115 16.7186 22.034C16.6912 22.2305 16.6324 22.4211 16.6031 22.6174C16.5573 22.784 16.5266 22.9533 16.511 23.1251C16.648 23.2399 16.8282 23.2826 16.9829 23.3701L17.0143 23.4499L17.0299 23.5258C17.0769 23.6715 17.0789 23.8291 17.1259 23.975C17.1473 24.0664 17.1689 24.1598 17.2061 24.2473C17.2434 24.3348 17.2492 24.3756 17.2687 24.4398C17.3628 24.3445 17.4626 24.2512 17.5508 24.1519C17.5469 24.0722 17.5605 23.9692 17.492 23.9108C17.6879 23.8291 17.8915 23.7669 18.0853 23.6775C18.2792 23.5879 18.4848 23.5024 18.6865 23.4187C18.851 23.339 19.0154 23.2612 19.1878 23.1971C19.229 23.1795 19.2759 23.1524 19.321 23.1795C19.4639 23.2437 19.6108 23.304 19.7538 23.3721C20.0082 23.4849 20.2628 23.5919 20.5194 23.7007C20.6662 23.765 20.8131 23.8447 20.9757 23.8583C21.001 23.9692 20.9952 24.0839 21.0422 24.1889C21.0891 24.294 21.1107 24.3776 21.1969 24.4339C21.2753 24.3445 21.3281 24.2356 21.3712 24.1267C21.4143 24.0178 21.4221 23.9556 21.4593 23.8759C21.4809 23.7261 21.4867 23.5743 21.5063 23.4226C21.6707 23.302 21.8763 23.2496 22.0389 23.1232C22.0409 23.0026 22.0076 22.8878 21.9919 22.7692C21.9411 22.6583 21.9351 22.5338 21.9078 22.4152C21.8882 22.3414 21.8588 22.2713 21.8353 22.2013C21.8275 22.1604 21.7961 22.1157 21.8059 22.0749C22.0605 21.8376 22.3151 21.5984 22.5814 21.3748ZM21.6316 19.7547C21.5435 19.7956 21.4573 19.8422 21.3673 19.8753C21.2772 19.9083 21.2243 19.8694 21.1597 19.8986C21.0598 19.9919 20.9854 20.1067 20.9032 20.2137C20.8209 20.3207 20.7328 20.4295 20.6447 20.5346C20.651 20.5809 20.6615 20.6262 20.676 20.6707C20.6995 20.8536 20.725 21.0382 20.7602 21.2192C20.7641 21.3261 20.7641 21.4331 20.7701 21.5401L20.7935 21.6023C20.7974 21.6412 20.8444 21.6957 20.7995 21.7267C20.6643 21.7385 20.5272 21.7248 20.3921 21.7306C20.2099 21.9135 20.0024 22.0652 19.8203 22.2499C19.6582 22.4359 19.48 22.6051 19.2858 22.7575C19.2074 22.6953 19.1173 22.6505 19.0448 22.5805C18.9372 22.4717 18.8295 22.3666 18.7316 22.2499C18.5474 22.0943 18.3889 21.9115 18.193 21.7714C18.0746 21.7491 17.9551 21.74 17.8347 21.7443L17.7877 21.6839C17.7857 21.5595 17.7838 21.437 17.7896 21.3144C17.8007 21.2429 17.8066 21.1709 17.8073 21.0986L17.825 21.081C17.8386 20.871 17.8896 20.6629 17.8876 20.451C17.7635 20.3636 17.6643 20.254 17.59 20.1223C17.5626 20.0755 17.541 20.0269 17.5038 19.988C17.4665 19.9491 17.3628 19.9162 17.2864 19.8947C17.1787 19.8636 17.0789 19.8169 16.975 19.778C16.8713 19.7391 16.7577 19.6769 16.6461 19.6361C16.605 19.6224 16.5619 19.6088 16.5325 19.5777C16.3191 19.3638 16.1487 19.1129 15.9528 18.8834C15.9372 18.8639 15.9157 18.8387 15.9314 18.8114C15.996 18.687 16.0958 18.5898 16.1938 18.4905C16.2466 18.4322 16.3347 18.4342 16.3934 18.3836C16.5031 18.3777 16.607 18.4127 16.7126 18.4342L16.8419 18.4731L16.9007 18.4924C17.0201 18.541 17.1493 18.5586 17.2728 18.6014L17.4117 18.6481L17.4704 18.6676C17.5723 18.7084 17.6801 18.7317 17.7857 18.7667L17.8289 18.7725L17.868 18.8134C17.8827 18.8941 17.9016 18.9738 17.9248 19.0526C17.9464 19.1751 17.962 19.2996 17.9816 19.4221C18.0306 19.5602 18.0266 19.708 18.052 19.8481C18.0638 19.887 18.0716 19.9259 18.0814 19.9667C18.1108 20.2059 18.1461 20.4452 18.1578 20.6863C18.15 20.7562 18.1442 20.8263 18.1304 20.8963C18.1284 21.0694 18.0794 21.2386 18.0814 21.4117C18.6023 21.4097 19.1212 21.4195 19.6421 21.4137C19.9339 21.4137 20.2257 21.4097 20.5174 21.4137C20.5037 21.3709 20.492 21.3301 20.4783 21.2872C20.4645 21.2444 20.4723 21.2386 20.4704 21.2134C20.4371 21.0519 20.4235 20.8886 20.4038 20.7252C20.3902 20.6006 20.4038 20.4742 20.4293 20.3537C20.4548 20.2331 20.4548 20.0795 20.4861 19.9472C20.5173 19.7818 20.5402 19.6151 20.5546 19.4474L20.5703 19.426L20.5762 19.3677C20.6094 19.1927 20.6349 19.0137 20.674 18.8387L20.6956 18.794C20.8112 18.7433 20.9325 18.7162 21.0539 18.6811L21.0912 18.6714L21.15 18.65L21.2282 18.6248C21.4828 18.547 21.7394 18.475 21.9959 18.4049C22.0722 18.3777 22.1506 18.4069 22.2289 18.4088C22.413 18.4808 22.5911 18.6306 22.6069 18.8406C22.5892 18.9593 22.5069 19.0526 22.4247 19.1343C22.3052 19.2626 22.2015 19.4066 22.0683 19.5213C22.0359 19.5537 22.0065 19.5887 21.9802 19.6263L21.9312 19.6419C21.8176 19.6439 21.7295 19.7118 21.6316 19.7547Z"
                fill="white" />
        </g>
        <path
            d="M17.1141 18.9378C17.0553 18.8561 16.9456 18.8426 16.8615 18.7978C16.7283 18.7317 16.5854 18.6947 16.4405 18.6616C16.3714 18.6953 16.3003 18.7239 16.2271 18.7473C16.2584 18.8153 16.3113 18.8698 16.3621 18.9242C16.4405 19.0214 16.5188 19.1187 16.5971 19.2159C16.6441 19.2763 16.7205 19.2996 16.791 19.3229C16.9187 19.3835 17.0512 19.4308 17.1885 19.4649C17.2206 19.4737 17.2531 19.4759 17.286 19.4715C17.3191 19.467 17.3498 19.4565 17.3784 19.4396C17.3784 19.4027 17.3784 19.3657 17.3765 19.3288C17.308 19.1848 17.2022 19.0682 17.1141 18.9378Z"
            fill="white" />
        <mask id="mask4_422_23059" style="mask-type:luminance" maskUnits="userSpaceOnUse" x="17"
            y="24" width="3" height="3">
            <path d="M17.4719 24.0669H19.2602V26.5178H17.4719V24.0669Z" fill="white" />
        </mask>
        <g mask="url(#mask4_422_23059)">
            <path
                d="M20.4273 24.8266C20.3156 24.743 20.2118 24.6516 20.1003 24.5661C19.8907 24.4085 19.687 24.2353 19.4442 24.1246L19.3855 24.107L19.3091 24.0837C19.2484 24.0951 19.189 24.1114 19.1309 24.1323L19.035 24.1654C18.8646 24.2413 18.7216 24.3599 18.5767 24.4726C18.4985 24.5543 18.3927 24.601 18.3104 24.6768C18.1675 24.8072 18.0031 24.9122 17.8562 25.0386C17.7856 25.0989 17.7308 25.1748 17.6623 25.2389C17.5938 25.3031 17.5664 25.3556 17.5585 25.4295C17.5487 25.497 17.533 25.5631 17.5115 25.6279C17.4978 25.6688 17.488 25.7115 17.4763 25.7524L17.5703 25.8263C17.7125 25.8785 17.8516 25.9383 17.9873 26.0052C18.0892 26.0441 18.1929 26.083 18.2929 26.1277C18.4612 26.2036 18.6414 26.2483 18.8059 26.3319L18.8372 26.3398C18.9723 26.3923 19.0996 26.4602 19.2367 26.5109C19.3483 26.5148 19.4442 26.4505 19.5442 26.4136C19.8418 26.2775 20.1531 26.1744 20.4527 26.0421C20.5957 25.98 20.7366 25.9138 20.8835 25.8633C20.9402 25.8394 20.9944 25.8109 21.046 25.7777C21.0363 25.6473 21.0089 25.5209 20.9814 25.3945C20.8815 25.1378 20.627 24.9977 20.4273 24.8266Z"
                fill="white" />
        </g>
    </symbol>
    <symbol id="burger" width="38" height="38" viewBox="0 0 38 38" fill="none"
        xmlns="http://www.w3.org/2000/svg">
        <rect width="38" height="38" rx="8" fill="white" fill-opacity="0.1" />
        <rect x="9" y="12" width="20" height="2" rx="1" fill="white" />
        <rect x="9" y="18" width="20" height="2" rx="1" fill="white" />
        <rect x="9" y="24" width="20" height="2" rx="1" fill="white" />
    </symbol>
    <symbol id="x" width="29" height="29" viewBox="0 0 29 29" fill="none" xmlns="http://www.w3.org/2000/svg">
        <rect x="2.63623" width="37.2838" height="3.72838" transform="rotate(45 2.63623 0)"
            fill="white" />
        <rect y="26.3636" width="37.2838" height="3.72838" transform="rotate(-45 0 26.3636)"
            fill="white" />
    </symbol>
    <symbol id="vk" width="43" height="43" viewBox="0 0 43 43" fill="none"
        xmlns="http://www.w3.org/2000/svg">
        <rect width="43" height="43" rx="8" fill="white" fill-opacity="0.1" />
        <path
            d="M24.1383 21.2265C23.6811 21.0563 23.6811 20.4061 23.6528 19.9533C23.5385 18.3405 24.1099 15.8782 23.4242 14.8314C22.9387 14.2084 20.5954 14.2654 19.1673 14.3506C18.7669 14.4076 18.2814 14.4918 17.9386 14.6621C17.5957 14.8323 17.2529 15.1149 17.2529 15.3693C17.2529 15.737 18.1104 15.6808 18.424 16.1617C18.7669 16.6715 18.7669 17.7745 18.7669 18.6801C18.7669 19.7269 18.595 21.1142 18.1671 21.1704C17.5098 21.1984 17.1386 20.5473 16.7957 20.0665C16.11 19.1328 15.4243 17.9719 14.9096 16.84C14.6527 16.2459 14.5091 15.5948 14.1379 15.3403C13.5665 14.9437 12.5379 14.9156 11.5377 14.9437C10.6235 14.9718 9.30873 14.8586 9.05182 15.3965C8.85159 15.9905 9.28039 16.5565 9.50896 17.0383C10.6801 19.5566 11.9373 21.7644 13.4806 23.8581C14.9096 25.8105 16.2517 27.3671 18.8803 28.1876C19.6236 28.414 22.8802 29.0651 23.5376 28.1876C23.7661 27.848 23.7095 27.0837 23.8237 26.5177C23.938 25.9517 24.0807 25.3858 24.6237 25.3577C25.0809 25.3296 25.3378 25.7253 25.624 26.0088C25.9385 26.3203 26.1954 26.5748 26.4239 26.8582C26.967 27.3961 27.5384 28.1314 28.2241 28.4149C29.1668 28.8115 30.6241 28.6983 31.9955 28.6413C33.11 28.6132 33.91 28.3868 33.996 27.7357C34.0536 27.2259 33.4812 26.4905 33.1384 26.0658C32.2808 25.019 31.8812 24.7075 30.9094 23.7449C30.4806 23.3202 29.9375 22.8674 29.9375 22.3585C29.9092 22.0469 30.1661 21.7644 30.3946 21.4529C31.3949 19.9814 32.3951 18.9345 33.3093 17.4059C33.5663 16.9531 34.1669 15.9063 33.9384 15.3965C33.6815 14.8305 32.2524 14.9998 31.3665 14.9998C30.2237 14.9998 28.738 14.9147 28.4518 15.1411C27.9087 15.5088 27.6802 16.1037 27.4232 16.6697C26.8518 17.9719 26.0802 19.3013 25.2802 20.292C24.994 20.6315 24.4519 21.3388 24.1373 21.2256L24.1383 21.2265Z"
            fill="white" />
    </symbol>
    <symbol id="whatsapp" width="43" height="43" viewBox="0 0 43 43" fill="none"
        xmlns="http://www.w3.org/2000/svg">
        <rect width="43" height="43" rx="8" fill="white" fill-opacity="0.1" />
        <path fill-rule="evenodd" clip-rule="evenodd"
            d="M27.9031 26.0332C27.638 26.7836 26.5842 27.4044 25.7438 27.586C25.1685 27.7081 24.4183 27.8047 21.8905 26.7572C19.0514 25.581 15.109 21.3911 15.109 18.6028C15.109 17.1834 15.9274 15.5306 17.3585 15.5306C18.0471 15.5306 18.1989 15.544 18.4255 16.0875C18.6906 16.7279 19.3374 18.3057 19.4144 18.4675C19.7323 19.131 19.091 19.5194 18.6257 20.0971C18.4772 20.2709 18.3089 20.4589 18.497 20.7824C18.684 21.0993 19.3308 22.1535 20.2812 22.9996C21.5088 24.0933 22.5043 24.4425 22.8607 24.5911C23.1258 24.7011 23.4426 24.6755 23.6362 24.4686C23.8815 24.2034 24.1862 23.7635 24.4964 23.3299C24.7153 23.0196 24.9936 22.9809 25.2851 23.0909C25.482 23.1591 27.9845 24.3213 28.0901 24.5073C28.1682 24.6426 28.1682 25.2828 27.9031 26.0332ZM21.5022 10.5H21.4967C15.4324 10.5 10.5 15.4339 10.5 21.5C10.5 23.9053 11.2755 26.1369 12.5944 27.9469L11.2238 32.0343L15.4511 30.6835C17.1902 31.8344 19.2659 32.5 21.5022 32.5C27.5665 32.5 32.5 27.5661 32.5 21.5C32.5 15.4339 27.5665 10.5 21.5022 10.5Z"
            fill="white" />
    </symbol>
    <symbol id="telegram" width="43" height="43" viewBox="0 0 43 43" fill="none"
        xmlns="http://www.w3.org/2000/svg">
        <rect width="43" height="43" rx="8" fill="white" fill-opacity="0.1" />
        <path
            d="M31.015 12.3331L11.5273 19.8997C10.1973 20.4376 10.205 21.1846 11.2833 21.5177L16.2865 23.0892L27.8627 15.7351C28.4101 15.3998 28.9102 15.5802 28.4991 15.9476L19.1201 24.4704H19.1179L19.1201 24.4715L18.775 29.6642C19.2806 29.6642 19.5037 29.4307 19.7873 29.1551L22.2175 26.7757L27.2725 30.5352C28.2045 31.052 28.8739 30.7864 29.1058 29.6664L32.4241 13.9201C32.7638 12.5489 31.9042 11.928 31.015 12.3331Z"
            fill="white" />
    </symbol>
    <symbol id="info" width="1560" height="182" viewBox="0 0 1560 182" fill="none"
        xmlns="http://www.w3.org/2000/svg">
        <path
            d="M1560 177.243H1532.94V159.848H1532.46C1529.08 166.129 1524 171.203 1517.24 175.069C1510.63 178.773 1503.87 180.625 1496.94 180.625C1480.51 180.625 1468.59 176.599 1461.18 168.545C1453.94 160.331 1450.31 148.009 1450.31 131.58V52.334H1477.86V128.922C1477.86 139.875 1479.95 147.606 1484.14 152.116C1488.32 156.626 1494.2 158.881 1501.77 158.881C1507.57 158.881 1512.4 157.995 1516.27 156.223C1520.14 154.452 1523.28 152.116 1525.69 149.217C1528.11 146.157 1529.8 142.533 1530.77 138.345C1531.89 134.157 1532.46 129.647 1532.46 124.815V52.334H1560V177.243Z"
            fill="white" fill-opacity="0.1" />
        <path
            d="M1365.37 52.3346H1391.22V76.4949H1391.71C1392.51 73.1125 1394.04 69.8106 1396.3 66.5892C1398.71 63.3678 1401.53 60.4686 1404.75 57.8915C1408.14 55.1533 1411.84 52.9789 1415.87 51.3682C1419.89 49.7575 1424 48.9521 1428.19 48.9521C1431.41 48.9521 1433.59 49.0327 1434.71 49.1938C1436 49.3548 1437.29 49.5159 1438.58 49.677V76.2533C1436.65 75.9312 1434.63 75.6896 1432.54 75.5285C1430.61 75.2064 1428.67 75.0453 1426.74 75.0453C1422.07 75.0453 1417.64 76.0117 1413.45 77.9446C1409.43 79.7163 1405.88 82.4545 1402.82 86.1591C1399.76 89.7026 1397.35 94.132 1395.57 99.4473C1393.8 104.763 1392.92 110.883 1392.92 117.809V177.244H1365.37V52.3346Z"
            fill="white" fill-opacity="0.1" />
        <path d="M1300.3 144.626H1333.89V177.242H1300.3V144.626Z" fill="white" fill-opacity="0.1" />
        <path
            d="M1235.37 52.3346H1261.22V76.4949H1261.7C1262.51 73.1125 1264.04 69.8106 1266.29 66.5892C1268.71 63.3678 1271.53 60.4686 1274.75 57.8915C1278.13 55.1533 1281.84 52.9789 1285.86 51.3682C1289.89 49.7575 1294 48.9521 1298.19 48.9521C1301.41 48.9521 1303.58 49.0327 1304.71 49.1938C1306 49.3548 1307.29 49.5159 1308.58 49.677V76.2533C1306.64 75.9312 1304.63 75.6896 1302.54 75.5285C1300.6 75.2064 1298.67 75.0453 1296.74 75.0453C1292.07 75.0453 1287.64 76.0117 1283.45 77.9446C1279.42 79.7163 1275.88 82.4545 1272.82 86.1591C1269.76 89.7026 1267.34 94.132 1265.57 99.4473C1263.8 104.763 1262.91 110.883 1262.91 117.809V177.244H1235.37V52.3346Z"
            fill="white" fill-opacity="0.1" />
        <path
            d="M1186.89 103.796C1186.57 99.4473 1185.6 95.2595 1183.99 91.2328C1182.54 87.206 1180.45 83.743 1177.71 80.8438C1175.13 77.7835 1171.91 75.3675 1168.04 73.5957C1164.34 71.6629 1160.15 70.6965 1155.48 70.6965C1150.65 70.6965 1146.22 71.5823 1142.19 73.3541C1138.33 74.9648 1134.94 77.3003 1132.05 80.3606C1129.31 83.2598 1127.05 86.7228 1125.28 90.7495C1123.67 94.7763 1122.78 99.1251 1122.62 103.796H1186.89ZM1122.62 121.916C1122.62 126.748 1123.27 131.419 1124.56 135.929C1126.01 140.439 1128.1 144.386 1130.84 147.768C1133.58 151.15 1137.04 153.889 1141.23 155.982C1145.41 157.915 1150.41 158.882 1156.21 158.882C1164.26 158.882 1170.7 157.19 1175.53 153.808C1180.53 150.265 1184.23 145.03 1186.65 138.104H1212.74C1211.29 144.869 1208.8 150.909 1205.25 156.224C1201.71 161.539 1197.44 166.049 1192.45 169.754C1187.45 173.297 1181.82 175.955 1175.53 177.727C1169.41 179.66 1162.97 180.626 1156.21 180.626C1146.38 180.626 1137.68 179.015 1130.11 175.794C1122.54 172.573 1116.1 168.063 1110.78 162.264C1105.63 156.466 1101.68 149.54 1098.95 141.486C1096.37 133.433 1095.08 124.574 1095.08 114.91C1095.08 106.051 1096.45 97.6755 1099.19 89.7831C1102.09 81.7297 1106.11 74.7232 1111.27 68.7636C1116.58 62.643 1122.95 57.8109 1130.35 54.2674C1137.76 50.7239 1146.14 48.9521 1155.48 48.9521C1165.31 48.9521 1174.08 51.046 1181.82 55.2338C1189.71 59.2606 1196.23 64.6564 1201.39 71.4213C1206.54 78.1862 1210.24 85.998 1212.5 94.8568C1214.92 103.555 1215.56 112.574 1214.43 121.916H1122.62Z"
            fill="white" fill-opacity="0.1" />
        <path
            d="M963.514 52.334H993.472L1025.12 148.251H1025.61L1056.05 52.334H1084.56L1039.86 177.243H1008.94L963.514 52.334Z"
            fill="white" fill-opacity="0.1" />
        <path
            d="M946.197 149.459C946.197 152.842 946.6 155.258 947.405 156.707C948.371 158.157 950.143 158.882 952.72 158.882C953.526 158.882 954.492 158.882 955.62 158.882C956.747 158.882 958.036 158.721 959.485 158.399V177.485C958.519 177.807 957.23 178.129 955.62 178.452C954.17 178.935 952.64 179.337 951.029 179.66C949.418 179.982 947.808 180.223 946.197 180.384C944.586 180.546 943.217 180.626 942.09 180.626C936.452 180.626 931.781 179.499 928.077 177.244C924.372 174.989 921.956 171.042 920.829 165.405C915.352 170.72 908.587 174.586 900.534 177.002C892.642 179.418 884.991 180.626 877.582 180.626C871.944 180.626 866.548 179.821 861.394 178.21C856.24 176.76 851.65 174.586 847.623 171.687C843.757 168.626 840.616 164.841 838.2 160.331C835.945 155.66 834.818 150.265 834.818 144.144C834.818 136.413 836.187 130.131 838.925 125.299C841.824 120.467 845.529 116.682 850.039 113.943C854.71 111.205 859.864 109.272 865.501 108.145C871.3 106.856 877.098 105.89 882.897 105.246C887.89 104.279 892.642 103.635 897.152 103.313C901.661 102.83 905.608 102.105 908.99 101.138C912.534 100.172 915.272 98.7225 917.205 96.7896C919.298 94.6957 920.345 91.6354 920.345 87.6087C920.345 84.0652 919.46 81.1659 917.688 78.911C916.077 76.656 913.983 74.9648 911.406 73.8373C908.99 72.5488 906.252 71.7434 903.192 71.4213C900.131 70.9381 897.232 70.6965 894.494 70.6965C886.763 70.6965 880.4 72.3071 875.407 75.5285C870.414 78.7499 867.595 83.743 866.951 90.5079H839.408C839.892 82.4545 841.824 75.7701 845.207 70.4549C848.589 65.1396 852.858 60.8712 858.012 57.6499C863.327 54.4285 869.287 52.1735 875.89 50.885C882.494 49.5964 889.259 48.9521 896.185 48.9521C902.306 48.9521 908.346 49.5964 914.305 50.885C920.265 52.1735 925.58 54.2674 930.251 57.1667C935.083 60.0659 938.949 63.851 941.848 68.522C944.747 73.032 946.197 78.5888 946.197 85.1927V149.459ZM918.654 114.668C914.466 117.406 909.312 119.098 903.192 119.742C897.071 120.225 890.95 121.031 884.83 122.158C881.931 122.641 879.112 123.366 876.374 124.332C873.635 125.138 871.22 126.346 869.126 127.956C867.032 129.406 865.34 131.419 864.052 133.997C862.924 136.413 862.361 139.392 862.361 142.936C862.361 145.996 863.246 148.573 865.018 150.667C866.79 152.761 868.884 154.452 871.3 155.741C873.877 156.868 876.615 157.674 879.514 158.157C882.575 158.64 885.313 158.882 887.729 158.882C890.789 158.882 894.091 158.479 897.635 157.674C901.178 156.868 904.48 155.499 907.541 153.566C910.762 151.634 913.419 149.218 915.513 146.318C917.607 143.258 918.654 139.553 918.654 135.205V114.668Z"
            fill="white" fill-opacity="0.1" />
        <path
            d="M756.646 52.3346H782.498V76.4949H782.981C783.786 73.1125 785.316 69.8106 787.571 66.5892C789.987 63.3678 792.806 60.4686 796.028 57.8915C799.41 55.1533 803.115 52.9789 807.141 51.3682C811.168 49.7575 815.275 48.9521 819.463 48.9521C822.685 48.9521 824.859 49.0327 825.986 49.1938C827.275 49.3548 828.564 49.5159 829.852 49.677V76.2533C827.919 75.9312 825.906 75.6896 823.812 75.5285C821.879 75.2064 819.946 75.0453 818.013 75.0453C813.342 75.0453 808.913 76.0117 804.725 77.9446C800.699 79.7163 797.155 82.4545 794.095 86.1591C791.034 89.7026 788.618 94.132 786.847 99.4473C785.075 104.763 784.189 110.883 784.189 117.809V177.244H756.646V52.3346Z"
            fill="white" fill-opacity="0.1" />
        <path
            d="M609.671 4.73584H637.214V68.5192H637.697C639.63 65.4588 641.966 62.7207 644.704 60.3046C647.442 57.8886 650.422 55.8752 653.643 54.2646C657.026 52.4928 660.489 51.2042 664.032 50.3989C667.737 49.4325 671.361 48.9493 674.904 48.9493C684.73 48.9493 693.266 50.721 700.514 54.2646C707.923 57.647 714.044 62.3985 718.876 68.5192C723.708 74.4787 727.332 81.4852 729.748 89.5387C732.164 97.5921 733.372 106.209 733.372 115.39C733.372 123.766 732.245 131.9 729.99 139.792C727.896 147.685 724.594 154.691 720.084 160.812C715.735 166.771 710.178 171.603 703.414 175.308C696.649 178.851 688.676 180.623 679.495 180.623C675.307 180.623 671.039 180.301 666.69 179.657C662.502 179.174 658.475 178.127 654.61 176.516C650.744 174.905 647.2 172.811 643.979 170.234C640.919 167.657 638.342 164.275 636.248 160.087H635.765V177.241H609.671V4.73584ZM705.83 114.907C705.83 109.27 705.105 103.793 703.655 98.478C702.206 93.1627 700.031 88.4917 697.132 84.465C694.233 80.2772 690.609 76.9753 686.26 74.5592C681.911 71.9821 676.918 70.6936 671.28 70.6936C659.683 70.6936 650.905 74.7203 644.946 82.7738C639.147 90.8272 636.248 101.538 636.248 114.907C636.248 121.189 636.973 127.068 638.422 132.544C640.033 137.859 642.368 142.45 645.429 146.315C648.489 150.181 652.113 153.241 656.301 155.496C660.65 157.751 665.643 158.879 671.28 158.879C677.562 158.879 682.877 157.59 687.226 155.013C691.575 152.436 695.119 149.134 697.857 145.107C700.756 140.92 702.769 136.249 703.897 131.094C705.185 125.779 705.83 120.383 705.83 114.907Z"
            fill="white" fill-opacity="0.1" />
        <path
            d="M532.406 109.835C531.762 111.767 531.198 113.7 530.715 115.633C530.392 117.566 530.231 119.338 530.231 120.948C530.231 122.559 530.554 123.928 531.198 125.056C532.003 126.022 533.211 126.505 534.822 126.505C538.526 126.505 542.231 125.217 545.936 122.64C549.801 119.901 553.184 116.197 556.083 111.526C559.143 106.855 561.559 101.379 563.331 95.0968C565.264 88.6541 566.23 81.7281 566.23 74.3189C566.23 65.2991 564.539 57.2456 561.157 50.1586C557.774 42.9105 553.103 36.7899 547.144 31.7967C541.345 26.8036 534.5 23.0185 526.607 20.4414C518.876 17.7032 510.581 16.3341 501.722 16.3341C491.414 16.3341 481.991 18.2669 473.455 22.1326C465.079 25.8372 457.831 30.9914 451.71 37.5952C445.59 44.038 440.838 51.6887 437.456 60.5475C434.073 69.2453 432.382 78.6678 432.382 88.8151C432.382 100.573 434.154 111.204 437.697 120.707C441.402 130.21 446.395 138.263 452.677 144.867C459.119 151.471 466.69 156.625 475.387 160.33C484.246 163.873 493.749 165.645 503.897 165.645C514.527 165.645 524.594 163.551 534.097 159.363C543.6 155.176 551.654 149.297 558.257 141.726H575.17C567.438 154.29 557.21 164.034 544.486 170.96C531.762 177.886 517.91 181.349 502.93 181.349C490.528 181.349 478.85 179.094 467.898 174.584C456.945 169.913 447.361 163.471 439.147 155.256C431.093 147.042 424.731 137.216 420.06 125.78C415.389 114.345 413.054 101.701 413.054 87.8487C413.054 75.6075 415.389 64.2521 420.06 53.7826C424.892 43.1521 431.335 33.8906 439.389 25.9982C447.442 18.1059 456.784 11.9047 467.414 7.39478C478.206 2.88485 489.642 0.629883 501.722 0.629883C512.514 0.629883 522.742 2.40164 532.406 5.94515C542.231 9.3276 550.848 14.1597 558.257 20.4414C565.667 26.723 571.546 34.2128 575.894 42.9105C580.404 51.6082 582.659 61.1113 582.659 71.4197C582.659 83.4999 580.565 94.0499 576.378 103.07C572.351 112.09 567.358 119.579 561.398 125.539C555.6 131.498 549.399 136.008 542.795 139.069C536.191 141.968 530.473 143.418 525.641 143.418C521.936 143.418 518.715 142.29 515.977 140.035C513.239 137.619 511.708 134.076 511.386 129.405H510.903C507.682 133.109 503.655 136.33 498.823 139.069C493.991 141.807 488.998 143.176 483.843 143.176C478.85 143.176 474.179 142.209 469.831 140.277C465.482 138.183 461.697 135.445 458.475 132.062C455.415 128.519 452.999 124.492 451.227 119.982C449.455 115.311 448.569 110.398 448.569 105.244C448.569 97.5129 449.858 89.9426 452.435 82.5334C455.012 75.1243 458.556 68.4399 463.066 62.4804C467.737 56.5208 473.293 51.7693 479.736 48.2258C486.34 44.5212 493.588 42.6689 501.481 42.6689C507.118 42.6689 512.272 44.038 516.943 46.7761C521.614 49.5143 525.48 53.9437 528.54 60.0643L532.889 46.2929H549.801L532.406 109.835ZM488.434 125.056C493.266 125.056 497.695 123.687 501.722 120.948C505.749 118.049 509.212 114.506 512.111 110.318C515.01 105.969 517.265 101.298 518.876 96.3048C520.648 91.1506 521.534 86.3991 521.534 82.0502C521.534 79.151 520.97 76.4128 519.842 73.8357C518.876 71.2586 517.507 69.0036 515.735 67.0708C514.125 65.138 512.111 63.6078 509.695 62.4804C507.44 61.3529 505.024 60.7891 502.447 60.7891C497.454 60.7891 492.863 62.1582 488.676 64.8964C484.649 67.6346 481.186 71.0975 478.287 75.2853C475.387 79.3121 473.132 83.822 471.522 88.8151C469.911 93.8083 469.106 98.5598 469.106 103.07C469.106 109.512 470.797 114.828 474.179 119.016C477.723 123.042 482.474 125.056 488.434 125.056Z"
            fill="white" fill-opacity="0.1" />
        <path
            d="M329.753 180.626C319.767 180.626 310.828 179.015 302.935 175.794C295.204 172.412 288.6 167.821 283.124 162.023C277.809 156.224 273.701 149.298 270.802 141.245C268.064 133.191 266.695 124.332 266.695 114.668C266.695 105.165 268.064 96.387 270.802 88.3335C273.701 80.2801 277.809 73.3541 283.124 67.5556C288.6 61.7571 295.204 57.2472 302.935 54.0258C310.828 50.6434 319.767 48.9521 329.753 48.9521C339.74 48.9521 348.598 50.6434 356.33 54.0258C364.222 57.2472 370.826 61.7571 376.141 67.5556C381.618 73.3541 385.725 80.2801 388.463 88.3335C391.362 96.387 392.812 105.165 392.812 114.668C392.812 124.332 391.362 133.191 388.463 141.245C385.725 149.298 381.618 156.224 376.141 162.023C370.826 167.821 364.222 172.412 356.33 175.794C348.598 179.015 339.74 180.626 329.753 180.626ZM329.753 158.882C335.874 158.882 341.189 157.593 345.699 155.016C350.209 152.439 353.914 149.057 356.813 144.869C359.712 140.681 361.806 136.01 363.095 130.856C364.544 125.54 365.269 120.145 365.269 114.668C365.269 109.353 364.544 104.038 363.095 98.7225C361.806 93.4072 359.712 88.7362 356.813 84.7095C353.914 80.5217 350.209 77.1392 345.699 74.5621C341.189 71.985 335.874 70.6965 329.753 70.6965C323.633 70.6965 318.317 71.985 313.807 74.5621C309.298 77.1392 305.593 80.5217 302.694 84.7095C299.794 88.7362 297.62 93.4072 296.17 98.7225C294.882 104.038 294.238 109.353 294.238 114.668C294.238 120.145 294.882 125.54 296.17 130.856C297.62 136.01 299.794 140.681 302.694 144.869C305.593 149.057 309.298 152.439 313.807 155.016C318.317 157.593 323.633 158.882 329.753 158.882Z"
            fill="white" fill-opacity="0.1" />
        <path
            d="M183.965 52.3317H204.502V41.9428C204.502 34.0504 205.468 27.6882 207.401 22.8561C209.334 17.863 211.911 14.0778 215.132 11.5007C218.354 8.76257 221.978 6.99081 226.004 6.18547C230.192 5.21905 234.541 4.73584 239.051 4.73584C247.91 4.73584 254.352 5.29958 258.379 6.42707V27.9298C256.607 27.4466 254.675 27.1244 252.581 26.9634C250.648 26.6412 248.312 26.4802 245.574 26.4802C241.87 26.4802 238.648 27.366 235.91 29.1378C233.333 30.9095 232.044 34.3725 232.044 39.5267V52.3317H255.48V72.868H232.044V177.241H204.502V72.868H183.965V52.3317Z"
            fill="white" fill-opacity="0.1" />
        <path
            d="M57.5535 52.3346H83.6466V70.6965L84.1298 71.1797C88.3176 64.2537 93.794 58.8579 100.559 54.9922C107.324 50.9655 114.813 48.9521 123.028 48.9521C136.719 48.9521 147.51 52.4957 155.403 59.5827C163.295 66.6697 167.241 77.3003 167.241 91.4744V177.244H139.699V98.7225C139.376 88.8973 137.283 81.8102 133.417 77.4614C129.551 72.9514 123.511 70.6965 115.297 70.6965C110.626 70.6965 106.438 71.5823 102.733 73.3541C99.0287 74.9648 95.8879 77.3003 93.3108 80.3606C90.7337 83.2598 88.7203 86.7228 87.2707 90.7495C85.8211 94.7763 85.0963 99.0446 85.0963 103.555V177.244H57.5535V52.3346Z"
            fill="white" fill-opacity="0.1" />
        <path d="M0 4.73584H27.5428V30.829H0V4.73584ZM0 52.3317H27.5428V177.241H0V52.3317Z"
            fill="white" fill-opacity="0.1" />
    </symbol>
    <symbol id="arrow" width="48" height="48" viewBox="0 0 48 48" fill="none"
        xmlns="http://www.w3.org/2000/svg">
        <rect width="48" height="48" rx="8" fill="#202020" />
        <path d="M16 32L32 16M32 16H16M32 16V32" stroke="white" stroke-width="2"
            stroke-linecap="round" stroke-linejoin="round" />
    </symbol>
    <symbol id="search" width="17" height="18" viewBox="0 0 17 18" fill="none"
        xmlns="http://www.w3.org/2000/svg">
        <path fill-rule="evenodd" clip-rule="evenodd"
            d="M11.5074 13.144C10.2896 14.1699 8.71698 14.7881 7 14.7881C3.13401 14.7881 0 11.6541 0 7.78809C0 3.9221 3.13401 0.788086 7 0.788086C10.866 0.788086 14 3.9221 14 7.78809C14 9.50507 13.3818 11.0777 12.3559 12.2955L16.4243 16.3638L15.5757 17.2124L11.5074 13.144ZM12.8 7.78809C12.8 10.9914 10.2033 13.5881 7 13.5881C3.79675 13.5881 1.2 10.9914 1.2 7.78809C1.2 4.58484 3.79675 1.98809 7 1.98809C10.2033 1.98809 12.8 4.58484 12.8 7.78809Z"
            fill="white" />
    </symbol>
    <symbol id="arrow-light" width="48" height="48" viewBox="0 0 48 48" fill="none"
        xmlns="http://www.w3.org/2000/svg">
        <rect width="48" height="48" rx="8" fill="#F4F4F4" />
        <path d="M16 32L32 16M32 16H16M32 16V32" stroke="#202020" stroke-width="2"
            stroke-linecap="round" stroke-linejoin="round" />
    </symbol>
</svg>