<svg width="43" height="43" viewBox="0 0 43 43" fill="none" xmlns="http://www.w3.org/2000/svg">
<rect width="43" height="43" rx="8" fill="white" fill-opacity="0.1"/>
<path d="M24.1383 21.2265C23.6811 21.0563 23.6811 20.4061 23.6528 19.9533C23.5385 18.3405 24.1099 15.8782 23.4242 14.8314C22.9387 14.2084 20.5954 14.2654 19.1673 14.3506C18.7669 14.4076 18.2814 14.4918 17.9386 14.6621C17.5957 14.8323 17.2529 15.1149 17.2529 15.3693C17.2529 15.737 18.1104 15.6808 18.424 16.1617C18.7669 16.6715 18.7669 17.7745 18.7669 18.6801C18.7669 19.7269 18.595 21.1142 18.1671 21.1704C17.5098 21.1984 17.1386 20.5473 16.7957 20.0665C16.11 19.1328 15.4243 17.9719 14.9096 16.84C14.6527 16.2459 14.5091 15.5948 14.1379 15.3403C13.5665 14.9437 12.5379 14.9156 11.5377 14.9437C10.6235 14.9718 9.30873 14.8586 9.05182 15.3965C8.85159 15.9905 9.28039 16.5565 9.50896 17.0383C10.6801 19.5566 11.9373 21.7644 13.4806 23.8581C14.9096 25.8105 16.2517 27.3671 18.8803 28.1876C19.6236 28.414 22.8802 29.0651 23.5376 28.1876C23.7661 27.848 23.7095 27.0837 23.8237 26.5177C23.938 25.9517 24.0807 25.3858 24.6237 25.3577C25.0809 25.3296 25.3378 25.7253 25.624 26.0088C25.9385 26.3203 26.1954 26.5748 26.4239 26.8582C26.967 27.3961 27.5384 28.1314 28.2241 28.4149C29.1668 28.8115 30.6241 28.6983 31.9955 28.6413C33.11 28.6132 33.91 28.3868 33.996 27.7357C34.0536 27.2259 33.4812 26.4905 33.1384 26.0658C32.2808 25.019 31.8812 24.7075 30.9094 23.7449C30.4806 23.3202 29.9375 22.8674 29.9375 22.3585C29.9092 22.0469 30.1661 21.7644 30.3946 21.4529C31.3949 19.9814 32.3951 18.9345 33.3093 17.4059C33.5663 16.9531 34.1669 15.9063 33.9384 15.3965C33.6815 14.8305 32.2524 14.9998 31.3665 14.9998C30.2237 14.9998 28.738 14.9147 28.4518 15.1411C27.9087 15.5088 27.6802 16.1037 27.4232 16.6697C26.8518 17.9719 26.0802 19.3013 25.2802 20.292C24.994 20.6315 24.4519 21.3388 24.1373 21.2256L24.1383 21.2265Z" fill="white"/>
</svg>
