<svg width="43" height="43" viewBox="0 0 43 43" fill="none" xmlns="http://www.w3.org/2000/svg">
<rect width="43" height="43" rx="8" fill="white" fill-opacity="0.1"/>
<path fill-rule="evenodd" clip-rule="evenodd" d="M27.9031 26.0332C27.638 26.7836 26.5842 27.4044 25.7438 27.586C25.1685 27.7081 24.4183 27.8047 21.8905 26.7572C19.0514 25.581 15.109 21.3911 15.109 18.6028C15.109 17.1834 15.9274 15.5306 17.3585 15.5306C18.0471 15.5306 18.1989 15.544 18.4255 16.0875C18.6906 16.7279 19.3374 18.3057 19.4144 18.4675C19.7323 19.131 19.091 19.5194 18.6257 20.0971C18.4772 20.2709 18.3089 20.4589 18.497 20.7824C18.684 21.0993 19.3308 22.1535 20.2812 22.9996C21.5088 24.0933 22.5043 24.4425 22.8607 24.5911C23.1258 24.7011 23.4426 24.6755 23.6362 24.4686C23.8815 24.2034 24.1862 23.7635 24.4964 23.3299C24.7153 23.0196 24.9936 22.9809 25.2851 23.0909C25.482 23.1591 27.9845 24.3213 28.0901 24.5073C28.1682 24.6426 28.1682 25.2828 27.9031 26.0332ZM21.5022 10.5H21.4967C15.4324 10.5 10.5 15.4339 10.5 21.5C10.5 23.9053 11.2755 26.1369 12.5944 27.9469L11.2238 32.0343L15.4511 30.6835C17.1902 31.8344 19.2659 32.5 21.5022 32.5C27.5665 32.5 32.5 27.5661 32.5 21.5C32.5 15.4339 27.5665 10.5 21.5022 10.5Z" fill="white"/>
</svg>
